/vscmnt/brussel_pixiu_data/_data_brussel/112/vsc11236/PredSimResults/SUBJ11opt3D/trackIG/worker_08.mot
version=1
nRows=11
nColumns=50
inDegrees=yes
endheader
                time	         pelvis_tilt	         pelvis_list	     pelvis_rotation	           pelvis_tx	           pelvis_ty	           pelvis_tz	       hip_flexion_r	     hip_adduction_r	      hip_rotation_r	        knee_angle_r	       ankle_angle_r	         mtp_angle_r	       hip_flexion_l	     hip_adduction_l	      hip_rotation_l	        knee_angle_l	       ankle_angle_l	         mtp_angle_l	    lumbar_extension	      lumbar_bending	     lumbar_rotation	 ercspn_r/activation	 intobl_r/activation	 extobl_r/activation	    abd_r/activation	    add_r/activation	hamstrings_r/activation	bifemsh_r/activation	glut_max_r/activation	iliopsoas_r/activation	rect_fem_r/activation	  vasti_r/activation	gastroc_r/activation	 soleus_r/activation	tib_ant_r/activation	 ercspn_l/activation	 intobl_l/activation	 extobl_l/activation	    abd_l/activation	    add_l/activation	hamstrings_l/activation	bifemsh_l/activation	glut_max_l/activation	iliopsoas_l/activation	rect_fem_l/activation	  vasti_l/activation	gastroc_l/activation	 soleus_l/activation	tib_ant_l/activation	
          0.60855886	         -5.01553682	          2.06719703	         -6.78287320	          0.79112652	          0.93433216	          0.00588066	        -14.03190390	         -3.75266931	         -0.53341926	        -11.78093274	          9.94746466	         34.35713798	         33.66718850	         -1.42614144	         -6.31390381	         -8.99279663	          2.59173087	          0.26001042	        -13.91504836	          0.11799519	          2.59334939	          0.01357043	          0.01000299	          0.01000341	          0.03160622	          0.02039633	          0.01235152	          0.26099388	          0.01741343	          0.09853882	          0.01002498	          0.01000754	          0.17590977	          0.31207313	          0.01360539	          0.05287568	          0.23947989	          0.04206830	          0.01000162	          0.22212740	          0.05131321	          0.18741174	          0.06388230	          0.11479970	          0.03578784	          0.01029318	          0.01000795	          0.01000050	          0.47441536	
          0.62073004	         -5.06256310	          2.16296219	         -6.97791812	          0.81101788	          0.93219638	          0.00517275	        -14.89099070	         -4.06837552	         -0.77793647	        -12.15210561	          8.74491453	         36.23736673	         33.66360307	         -1.27803493	         -6.43011721	        -10.72407835	          1.96465882	          0.25393898	        -13.45271595	         -0.33697109	          2.81407453	          0.04955268	          0.01000217	          0.01000587	          0.02627615	          0.09889791	          0.01222013	          0.21698608	          0.01447796	          0.11807989	          0.01001017	          0.01000654	          0.14624467	          0.28173064	          0.01131112	          0.04396054	          0.19909392	          0.03497386	          0.01000098	          0.24601934	          0.04577915	          0.15580756	          0.17227426	          0.09543965	          0.02975483	          0.01000160	          0.01440590	          0.01203722	          0.51196475	
          0.63290122	         -5.08811317	          2.24530282	         -7.13774637	          0.83125303	          0.93029741	          0.00441895	        -15.59906653	         -4.36903941	         -1.05877778	        -12.84380788	          7.43199567	         38.10775844	         33.55913370	         -1.16817503	         -6.49647386	        -12.58991196	          1.52762666	          0.21426899	        -12.96673085	         -0.77992930	          3.02503424	          0.05035492	          0.01000116	          0.01000321	          0.02184494	          0.08222404	          0.01016475	          0.18039795	          0.01203749	          0.20284294	          0.01003927	          0.01002136	          0.12158176	          0.24863849	          0.01000048	          0.04009000	          0.16551859	          0.02907585	          0.10063071	          0.28341406	          0.04859878	          0.12953302	          0.17464562	          0.07934453	          0.02473915	          0.01000086	          0.01197722	          0.01000743	          0.59130672	
          0.64507240	         -5.09534196	          2.29926255	         -7.25645572	          0.85147426	          0.92884091	          0.00358786	        -16.01296913	         -4.64074171	         -1.35024513	        -14.06145631	          6.02701772	         39.91605114	         33.46790337	         -1.08239927	         -6.59928338	        -14.48307793	          0.95417801	          0.17843919	        -12.50213237	         -1.19140838	          3.21889339	          0.07416908	          0.01000135	          0.01000249	          0.01816103	          0.11989039	          0.01011510	          0.14998054	          0.01001422	          0.27933520	          0.01003572	          0.01202455	          0.10107797	          0.20670919	          0.01000049	          0.05519051	          0.13760536	          0.02417250	          0.14064237	          0.36703140	          0.04096664	          0.10768920	          0.21004771	          0.06596374	          0.02056955	          0.01001208	          0.01000158	          0.01000058	          0.64300188	
          0.65724357	         -5.08296194	          2.33212646	         -7.33581495	          0.87147969	          0.92791076	          0.00269095	        -16.02541328	         -4.89344993	         -1.63788952	        -15.97549531	          4.58493510	         41.53014157	         33.47213172	         -1.01880565	         -6.72592307	        -16.59007655	          0.59107015	          0.11964231	        -12.08025233	         -1.58201668	          3.38926591	          0.11892716	          0.01000159	          0.01000187	          0.01509837	          0.18656480	          0.01024442	          0.12474433	          0.01000164	          0.31101564	          0.01000416	          0.01000116	          0.08403197	          0.17184929	          0.01000066	          0.06815191	          0.11439949	          0.02009607	          0.17741921	          0.41960373	          0.04276754	          0.08952929	          0.22660051	          0.05483951	          0.01710346	          0.06402764	          0.01000326	          0.01000137	          0.65976065	
          0.66941475	         -5.05229789	          2.34942827	         -7.37558401	          0.89115530	          0.92760229	          0.00175460	        -15.55704773	         -5.13380240	         -1.93855471	        -18.70097594	          3.13852194	         42.72781794	         33.49211656	         -0.96149161	         -6.84706838	        -18.79106783	          0.61493121	          0.05912670	        -11.70730157	         -1.95972850	          3.52995786	          0.14872995	          0.01000119	          0.01000221	          0.01255221	          0.21797178	          0.01000921	          0.10954106	          0.01000057	          0.25857164	          0.01000253	          0.01000042	          0.06986066	          0.14286819	          0.01000117	          0.05667287	          0.09510711	          0.01670712	          0.19042759	          0.41907156	          0.03584592	          0.07443221	          0.23571031	          0.04559131	          0.01422258	          0.11306353	          0.01000206	          0.01000061	          0.63539158	
          0.68158593	         -5.00594502	          2.35487644	         -7.37405927	          0.91041267	          0.92799169	          0.00080093	        -14.57467263	         -5.37439782	         -2.27253781	        -22.28513507	          1.79142504	         43.04988623	         33.44437938	         -0.88963168	         -6.92677050	        -20.93141550	          1.04614778	          0.01667785	        -11.38763707	         -2.32943977	          3.63546645	          0.15246457	          0.01000133	          0.01000253	          0.01043549	          0.23235398	          0.01000640	          0.09111999	          0.01000047	          0.21496661	          0.01000200	          0.01000029	          0.05807925	          0.11877452	          0.01000075	          0.04711718	          0.07906826	          0.01388974	          0.20063367	          0.41364981	          0.03861689	          0.06188167	          0.20589482	          0.03790275	          0.01182923	          0.14810597	          0.01000159	          0.01000048	          0.55169063	
          0.69375710	         -4.94756506	          2.34384827	         -7.32988901	          0.92922083	          0.92908331	         -0.00014178	        -13.09679287	         -5.61982377	         -2.62494719	        -26.63162525	          0.35947702	         42.52418160	         33.24657936	         -0.78980281	         -6.92777590	        -22.84656016	          1.82537990	          0.03957124	        -11.11973946	         -2.68797652	          3.70240149	          0.14142010	          0.01000112	          0.01000497	          0.01000030	          0.27833796	          0.01165365	          0.08944384	          0.01000036	          0.17871470	          0.01000134	          0.01000019	          0.04828469	          0.09874405	          0.01000090	          0.03917196	          0.06573423	          0.01154763	          0.21058573	          0.38360955	          0.04436986	          0.05144849	          0.17117394	          0.03151081	          0.01001082	          0.22150503	          0.01000228	          0.01000068	          0.45865326	
          0.70592828	         -4.88283086	          2.30124300	         -7.23640563	          0.94753049	          0.93091653	         -0.00102504	        -11.16601674	         -5.85549750	         -2.98337283	        -31.56114871	         -1.37603495	         41.20113437	         32.78606725	         -0.66544945	         -6.85089468	        -24.31325002	          2.85778583	          0.22077014	        -10.90663072	         -3.02438851	          3.72401409	          0.11757706	          0.01005197	          0.02566560	          0.01000051	          0.30653726	          0.02093121	          0.08066924	          0.01000073	          0.14857628	          0.01000089	          0.01000016	          0.04014194	          0.08209158	          0.01000092	          0.03256644	          0.05464888	          0.01000165	          0.19866723	          0.31892877	          0.05151311	          0.04277625	          0.14230728	          0.02619683	          0.01000577	          0.28244269	          0.01000297	          0.01000074	          0.38130533	
          0.71809946	         -4.81764046	          2.21219842	         -7.09231579	          0.96526383	          0.93350420	         -0.00181920	         -8.84934617	         -6.06586728	         -3.31649307	        -36.85065761	         -3.48294126	         38.96347186	         32.02183036	         -0.53580283	         -6.71454071	        -25.20998116	          3.92772157	          0.55182364	        -10.75756245	         -3.32392305	          3.70204767	          0.15212458	          0.05914206	          0.08613200	          0.01000030	          0.25484385	          0.01740187	          0.07275812	          0.01000048	          0.12352068	          0.01000112	          0.01000015	          0.03337245	          0.06824743	          0.03758411	          0.02707504	          0.04543301	          0.01000161	          0.16920397	          0.26514475	          0.04557585	          0.03556581	          0.11830863	          0.02177903	          0.01000594	          0.32690518	          0.01000243	          0.01000053	          0.31700205	
          0.73027064	         -4.75455148	          2.07715194	         -6.90157704	          0.98236384	          0.93674741	         -0.00256893	         -6.25067009	         -6.24017156	         -3.56187730	        -42.28882700	         -5.60055083	         35.29692551	         30.99047295	         -0.40936495	         -6.52600642	        -25.55965923	          4.88020499	          0.97327771	        -10.68266811	         -3.57075377	          3.64298818	          0.16937374	          0.09662134	          0.13371683	          0.01000142	          0.21186668	          0.01446752	          0.06050317	          0.01000107	          0.10269095	          0.01000919	          0.01000020	          0.02774469	          0.05673800	          0.19729573	          0.02250970	          0.03777139	          0.01000142	          0.14067048	          0.22043190	          0.04323101	          0.02956963	          0.09835735	          0.01810627	          0.01000501	          0.33263452	          0.01000191	          0.01000051	          0.26354688	
